<svg version="1.1" id="Layer_1" xmlns="http://www.w3.org/2000/svg" xmlns:xlink="http://www.w3.org/1999/xlink" x="0px" y="0px"
	 width="100%" viewBox="0 0 128 144" enable-background="new 0 0 128 144" xml:space="preserve">
<path fill="#000000" opacity="1.000000" stroke="none" 
	d="
M129.000000,84.536819 
	C127.195961,87.736748 127.102333,91.340439 123.954079,94.766930 
	C120.377686,72.707726 107.427536,60.886860 85.712799,57.839584 
	C96.642220,52.427563 116.835495,57.170399 128.718353,71.824661 
	C129.000000,76.024544 129.000000,80.049088 129.000000,84.536819 
z"/>
<path fill="#000000" opacity="1.000000" stroke="none" 
	d="
M111.394745,111.034515 
	C104.849762,125.541687 91.458328,130.828506 77.458885,127.697670 
	C64.102646,124.710678 54.891102,112.269890 55.775673,98.571030 
	C56.779835,83.020142 67.665710,71.311020 84.879166,70.875122 
	C100.578117,70.477577 113.159470,83.453987 113.361931,98.956741 
	C113.414597,102.988846 113.176537,106.921280 111.394745,111.034515 
z"/>
<path fill="#000000" opacity="1.000000" stroke="none" 
	d="
M24.856777,31.916431 
	C28.993601,28.258610 32.158318,23.901432 38.519043,21.286680 
	C24.381729,60.136261 31.894493,93.973495 58.005791,124.304848 
	C54.471333,125.055511 52.624016,123.437752 50.811260,121.708870 
	C33.064774,104.783531 22.561852,84.224709 19.533482,59.833309 
	C19.123549,56.531597 18.946959,53.226582 18.587990,49.942326 
	C17.826885,42.978889 19.937918,37.192940 24.856777,31.916431 
z"/>
<path fill="#000000" opacity="1.000000" stroke="none" 
	d="
M48.796593,60.774551 
	C45.563465,69.247993 45.074860,77.784050 44.565861,86.402077 
	C42.050636,80.776917 41.656475,74.803131 41.862377,68.987679 
	C42.543835,49.740250 49.180321,32.637032 61.437351,17.710146 
	C64.393272,14.110360 67.690903,12.298335 72.579445,12.569553 
	C79.842438,12.972509 86.860237,13.748254 94.781876,17.956179 
	C72.317825,25.822626 56.886936,39.227997 48.796593,60.774551 
z"/>
<path fill="#000000" opacity="1.000000" stroke="none" 
	d="
M86.190948,36.995903 
	C94.550194,32.407562 103.458206,32.585163 112.197060,31.889730 
	C113.585442,31.779242 114.895325,32.106522 115.851540,33.145020 
	C120.852135,38.575912 124.200851,44.870121 126.624008,53.421474 
	C101.814911,40.233341 79.949776,42.269196 60.368710,61.811012 
	C61.336754,54.738445 72.188782,44.461517 86.190948,36.995903 
z"/>
<path fill="#000000" opacity="1.000000" stroke="none" 
	d="
M15.677696,91.068192 
	C12.370057,82.611305 10.630527,74.340668 12.488323,65.554008 
	C16.133741,83.518875 23.489040,99.751434 34.648453,114.348915 
	C25.999046,108.534332 19.643171,101.011734 15.677696,91.068192 
z"/>
</svg>